<svg xmlns="http://www.w3.org/2000/svg" viewBox="0 0 524.65 44.03"><g id="レイヤー_2" data-name="レイヤー 2"><g id="説明書き"><path d="M.17,36.09a81,81,0,0,1,108-1.43" fill="none" stroke="#c30d23" stroke-miterlimit="10" stroke-width="0.5"/><path d="M215.46,36.09a81,81,0,0,1,108-1.43" fill="none" stroke="#c30d23" stroke-miterlimit="10" stroke-width="0.5"/><path d="M56.23,19a52.39,52.39,0,0,1,69.86-.92" fill="none" stroke="#c30d23" stroke-miterlimit="10" stroke-width="0.5"/><path d="M300.12,38.07A52.41,52.41,0,0,1,370,37.15" fill="none" stroke="#c30d23" stroke-miterlimit="10" stroke-width="0.5"/><path d="M62.13,43.84a140.63,140.63,0,0,1,187.49-2.46" fill="none" stroke="#c30d23" stroke-miterlimit="10" stroke-width="0.5"/><path d="M337,43.84a140.63,140.63,0,0,1,187.49-2.46" fill="none" stroke="#c30d23" stroke-miterlimit="10" stroke-width="0.5"/><circle cx="254.67" cy="16.7" r="4.5" fill="#c30d23"/><circle cx="462.67" cy="34.7" r="4.5" fill="#c30d23"/><circle cx="135.67" cy="32.7" r="2.7" fill="#c30d23"/><circle cx="489.67" cy="13.7" r="2.7" fill="#c30d23"/><circle cx="51.67" cy="2.7" r="2.7" fill="#c30d23"/><circle cx="405.67" cy="19.7" r="2.7" fill="#c30d23"/><circle cx="267.67" cy="23.7" r="2.7" fill="#c30d23"/></g></g></svg>